{"title":"The Pacific (2010)  1080p  - (Episode 8)","uid":8809735,"size":2398247047,"categoryP":"video","categoryS":"hd___tv_shows","magnet":"?xt=urn:btih:3207141f49d80197b14350b060039b8b141ac021&amp;dn=The+Pacific+%282010%29++1080p++-+%28Episode+8%29&amp;tr=udp%3A%2F%2Ftracker.openbittorrent.com%3A80&amp;tr=udp%3A%2F%2Fopen.demonii.com%3A1337&amp;tr=udp%3A%2F%2Ftracker.coppersurfer.tk%3A6969&amp;tr=udp%3A%2F%2Fexodus.desync.com%3A6969","seeders":1,"leechers":1,"uploader":"molpol","files":-1,"time":1376428960,"description":"\n\nThe Pacific (2010)\n\n\nEpisode 8: Iwo Jima\n\nFrustrated with his bond selling tour, Basilone goes back to training troupes and after marrying a pretty marine sergeant, leads his men at Iwo Jima.\n\n\nMedia Info:\n\nFormat                                   : Matroska\nFormat version                           : Version 4 / Version 2\nFile size                                : 2.23 GiB\nDuration                                 : 56mn 15s\nOverall bit rate                         : 5 682 Kbps\nMovie name                               : PACIFIC_DISC4.Title800.BlurayRip\nEncoded date                             : UTC 2013-07-25 16:31:54\nWriting application                      : mkvmerge v6.1.0 ('Old Devil') built on Mar  2 2013 22:22:31\nWriting library                          : libebml v1.3.0 + libmatroska v1.4.0\n\nVideo\nID                                       : 1\nFormat                                   : AVC\nFormat/Info                              : Advanced Video Codec\nFormat profile                           : &lt;a class=&quot;__cf_email__&quot; href=&quot;/cdn-cgi/l/email-protection&quot; data-cfemail=&quot;125a7b757a525e263c23&quot;&gt;[email&amp;#160;protected]&lt;/a&gt;&lt;script cf-hash='f9e31' type=&quot;text/javascript&quot;&gt;\n/* &lt;![CDATA[ */!function(){try{var t=&quot;currentScript&quot;in document?document.currentScript:function(){for(var t=document.getElementsByTagName(&quot;script&quot;),e=t.length;e--;)if(t[e].getAttribute(&quot;cf-hash&quot;))return t[e]}();if(t&amp;&amp;t.previousSibling){var e,r,n,i,c=t.previousSibling,a=c.getAttribute(&quot;data-cfemail&quot;);if(a){for(e=&quot;&quot;,r=parseInt(a.substr(0,2),16),n=2;a.length-n;n+=2)i=parseInt(a.substr(n,2),16)^r,e+=String.fromCharCode(i);e=document.createTextNode(e),c.parentNode.replaceChild(e,c)}}}catch(u){}}();/* ]]&gt; */&lt;/script&gt;\nFormat settings, CABAC                   : Yes\nFormat settings, ReFrames                : 2 frames\nCodec ID                                 : V_MPEG4/ISO/AVC\nDuration                                 : 56mn 15s\nBit rate                                 : 4 673 Kbps\nWidth                                    : 1 920 pixels\nHeight                                   : 1 080 pixels\nDisplay aspect ratio                     : 16:9\nFrame rate mode                          : Constant\nFrame rate                               : 23.976 fps\nColor space                              : YUV\nChroma subsampling                       : 4:2:0\nBit depth                                : 8 bits\nScan type                                : Progressive\nBits/(Pixel*Frame)                       : 0.094\nStream size                              : 1.84 GiB (82%)\nWriting library                          : x264 core\nDefault                                  : Yes\nForced                                   : No\nColor primaries                          : BT.709\nTransfer characteristics                 : BT.709\nMatrix coefficients                      : BT.709\n\nAudio #1\nID                                       : 2\nFormat                                   : DTS\nFormat/Info                              : Digital Theater Systems\nMode                                     : 16\nFormat settings, Endianness              : Big\nCodec ID                                 : A_DTS\nDuration                                 : 56mn 15s\nBit rate mode                            : Constant\nBit rate                                 : 768 Kbps\nChannel(s)                               : 2 channels\nChannel positions                        : Front: L R\nSampling rate                            : 48.0 KHz\nBit depth                                : 24 bits\nCompression mode                         : Lossy\nStream size                              : 309 MiB (14%)\nLanguage                                 : Spanish\nDefault                                  : Yes\nForced                                   : No\n\nAudio #2\nID                                       : 3\nFormat                                   : AC-3\nFormat/Info                              : Audio Coding 3\nMode extension                           : CM (complete main)\nFormat settings, Endianness              : Big\nCodec ID                                 : A_AC3\nDuration                                 : 56mn 15s\nBit rate mode                            : Constant\nBit rate                                 : 128 Kbps\nChannel(s)                               : 2 channels\nChannel positions                        : Front: L R\nSampling rate                            : 48.0 KHz\nBit depth                                : 16 bits\nCompression mode                         : Lossy\nStream size                              : 51.5 MiB (2%)\nLanguage                                 : English\nDefault                                  : No\nForced                                   : No\n\nText\nID                                       : 4\nFormat                                   : PGS\nMuxing mode                              : zlib\nCodec ID                                 : S_HDMV/PGS\nCodec ID/Info                            : The same subtitle format used on BDs/HD-DVDs\nLanguage                                 : Spanish\nDefault                                  : No\nForced                                   : No\n\nMenu\n00:00:00.000                             : en:(01)00:00:00:000\n00:02:52.338                             : en:(02)00:02:52:338\n00:09:30.528                             : en:(03)00:09:30:528\n00:14:38.794                             : en:(04)00:14:38:794\n00:20:50.290                             : en:(05)00:20:50:290\n00:29:48.995                             : en:(06)00:29:48:995\n00:40:43.441                             : en:(07)00:40:43:441\n00:52:02.119                             : en:(08)00:52:02:119\n00:56:15.121                             : en:(09)00:56:15:121\n","torrent":{"xt":"urn:btih:3207141f49d80197b14350b060039b8b141ac021","amp;dn":"The+Pacific+%282010%29++1080p++-+%28Episode+8%29","amp;tr":["udp%3A%2F%2Ftracker.openbittorrent.com%3A80","udp%3A%2F%2Fopen.demonii.com%3A1337","udp%3A%2F%2Ftracker.coppersurfer.tk%3A6969","udp%3A%2F%2Fexodus.desync.com%3A6969"],"infoHash":"3207141f49d80197b14350b060039b8b141ac021","infoHashBuffer":{"type":"Buffer","data":[50,7,20,31,73,216,1,151,177,67,80,176,96,3,155,139,20,26,192,33]},"announce":[],"urlList":[]}}